HIERARCHY
ROOT Hips
{
	OFFSET 0.00000 0.00000 0.00000
	CHANNELS 6 Xposition Yposition Zposition Zrotation Yrotation Xrotation 
	JOINT LHipJoint
	{
		OFFSET 0 0 0
		CHANNELS 3 Zrotation Yrotation Xrotation
		JOINT LeftUpLeg
		{
			OFFSET 1.56857 -1.73443 1.15205
			CHANNELS 3 Zrotation Yrotation Xrotation
			JOINT LeftLeg
			{
				OFFSET 2.39362 -6.57643 0.00000
				CHANNELS 3 Zrotation Yrotation Xrotation
				JOINT LeftFoot
				{
					OFFSET 2.50952 -6.89485 0.00000
					CHANNELS 3 Zrotation Yrotation Xrotation
					JOINT LeftToeBase
					{
						OFFSET 0.17171 -0.47178 1.88682
						CHANNELS 3 Zrotation Yrotation Xrotation
						End Site
						{
							OFFSET 0.00000 -0.00000 0.98146
						}
					}
				}
			}
		}
	}
	JOINT RHipJoint
	{
		OFFSET 0 0 0
		CHANNELS 3 Zrotation Yrotation Xrotation
		JOINT RightUpLeg
		{
			OFFSET -1.28153 -1.73443 1.15205
			CHANNELS 3 Zrotation Yrotation Xrotation
			JOINT RightLeg
			{
				OFFSET -2.26861 -6.23296 0.00000
				CHANNELS 3 Zrotation Yrotation Xrotation
				JOINT RightFoot
				{
					OFFSET -2.54143 -6.98254 0.00000
					CHANNELS 3 Zrotation Yrotation Xrotation
					JOINT RightToeBase
					{
						OFFSET -0.23309 -0.64041 1.93119
						CHANNELS 3 Zrotation Yrotation Xrotation
						End Site
						{
							OFFSET -0.00000 -0.00000 1.02013
						}
					}
				}
			}
		}
	}
	JOINT LowerBack
	{
		OFFSET 0 0 0
		CHANNELS 3 Zrotation Yrotation Xrotation
		JOINT Spine
		{
			OFFSET -0.07096 2.10460 -0.27878
			CHANNELS 3 Zrotation Yrotation Xrotation
			JOINT Spine1
			{
				OFFSET -0.00826 2.13662 -0.08279
				CHANNELS 3 Zrotation Yrotation Xrotation
				JOINT Neck
				{
					OFFSET 0 0 0
					CHANNELS 3 Zrotation Yrotation Xrotation
					JOINT Neck1
					{
						OFFSET 0.03239 1.77799 0.24435
						CHANNELS 3 Zrotation Yrotation Xrotation
						JOINT Head
						{
							OFFSET 0.01026 1.74194 -0.49664
							CHANNELS 3 Zrotation Yrotation Xrotation
							End Site
							{
								OFFSET 0.00170 1.83057 -0.19653
							}
						}
					}
				}
				JOINT LeftShoulder
				{
					OFFSET 0 0 0
					CHANNELS 3 Zrotation Yrotation Xrotation
					JOINT LeftArm
					{
						OFFSET 3.19178 1.35907 -0.31412
						CHANNELS 3 Zrotation Yrotation Xrotation
						JOINT LeftForeArm
						{
							OFFSET 4.85247 -0.00000 -0.00000
							CHANNELS 3 Zrotation Yrotation Xrotation
							JOINT LeftHand
							{
								OFFSET 3.55584 -0.00000 0.00000
								CHANNELS 3 Zrotation Yrotation Xrotation
								JOINT LeftFingerBase
								{
									OFFSET 0 0 0
									CHANNELS 3 Zrotation Yrotation Xrotation
									JOINT LeftHandIndex1
									{
										OFFSET 0.69320 -0.00000 0.00000
										CHANNELS 3 Zrotation Yrotation Xrotation
										End Site
										{
											OFFSET 0.55888 -0.00000 0.00000
										}
									}
								}
								JOINT LThumb
								{
									OFFSET 0 0 0
									CHANNELS 3 Zrotation Yrotation Xrotation
									End Site
									{
										OFFSET 0.56741 -0.00000 0.56741
									}
								}
							}
						}
					}
				}
				JOINT RightShoulder
				{
					OFFSET 0 0 0
					CHANNELS 3 Zrotation Yrotation Xrotation
					JOINT RightArm
					{
						OFFSET -3.28999 1.24191 -0.26899
						CHANNELS 3 Zrotation Yrotation Xrotation
						JOINT RightForeArm
						{
							OFFSET -4.64462 -0.00000 0.00000
							CHANNELS 3 Zrotation Yrotation Xrotation
							JOINT RightHand
							{
								OFFSET -3.40703 -0.00000 0.00000
								CHANNELS 3 Zrotation Yrotation Xrotation
								JOINT RightFingerBase
								{
									OFFSET 0 0 0
									CHANNELS 3 Zrotation Yrotation Xrotation
									JOINT RightHandIndex1
									{
										OFFSET -0.61958 -0.00000 0.00000
										CHANNELS 3 Zrotation Yrotation Xrotation
										End Site
										{
											OFFSET -0.49952 -0.00000 0.00000
										}
									}
								}
								JOINT RThumb
								{
									OFFSET 0 0 0
									CHANNELS 3 Zrotation Yrotation Xrotation
									End Site
									{
										OFFSET -0.50715 -0.00000 0.50715
									}
								}
							}
						}
					}
				}
			}
		}
	}
}
MOTION
Frames: 15
Frame Time: .0083333
-35.1156 16.1473 5.3576 0 0 0 0 0 0 -21 0 0 0 0 0 0 0 0 0 0 0 0 0 0 21 0 0 0 0 0 0 0 0 0 0 0 0 0 0 0 0 0 0 0 0 0 0 -16 0 0 21 0 0 11 0 0 0 -8 0 0 0 0 0 0 0 0 0 0 0 0 0 0 0 0 0 0 0 0 8 0 0 0 0 0 0 0 0 0 0 0 0 0 0 0 0 0
-35.1156 16.1473 5.3576 6.7658 -34.9928 -14.8573 0.0000 0.0000 0.0000 5.4063 21.3389 9.5331 20.6356 19.9903 91.8587 0.1863 -0.4690 -7.9991 0.0061 0.5058 1.3897 0.0000 0.0000 0.0000 25.2217 4.1175 -2.4291 -3.9358 -12.0745 35.9959 -1.1171 9.1933 -19.0066 -3.7702 -11.8482 35.1971 -13.5757 -4.7110 14.5416 -2.3847 -8.6808 0.7370 6.5440 -3.9406 -5.7237 -1.5363 -2.5222 -17.4460 8.8240 -5.0320 17.3140 2.5986 -1.6015 8.5664 0.0000 0.0000 0.0000 -4.2070 -56.3701 -2.7175 68.4345 -58.1677 -41.4387 -0.0000 0.0000 -6.1651 32.3919 -38.2066 -21.4245 -7.1250 0.0000 -0.0000 -1.1707 -13.0011 1.4043 0.0000 0.0000 0.0000 -30.2587 6.8506 -61.9727 -67.4870 57.9955 -40.6344 0.0000 -0.0000 -38.4231 -35.7568 -42.4104 25.9033 7.1250 -0.0000 -0.0000 3.4022 -78.3442 -2.6452
-34.8317 16.1592 5.3700 8.1508 -36.9866 -15.4298 0.0000 0.0000 0.0000 4.7423 20.6246 9.9144 19.8263 19.9993 89.4921 0.2329 0.9492 -9.5123 0.0029 0.3488 0.9585 0.0000 0.0000 0.0000 23.2029 4.3768 -2.9318 -3.6297 -11.6507 34.5071 -0.8761 8.9852 -16.9133 -2.6933 -10.1812 29.5654 -14.9404 -4.3343 14.3256 -2.0689 -8.3337 0.8508 7.5271 -3.7749 -5.3124 -0.6429 -2.7338 -17.4931 8.1127 -5.4378 17.5608 2.1580 -1.7994 8.6368 -0.0000 -0.0000 0.0000 -7.1112 -55.7895 -0.7805 71.9193 -58.7280 -44.4086 -0.0000 0.0000 -7.1038 37.9635 -40.3088 -26.7827 -7.1250 0.0000 -0.0000 1.0082 -17.1108 -1.2603 -0.0000 -0.0000 0.0000 -28.4188 8.4272 -61.7723 -73.4879 58.9443 -45.7508 0.0000 -0.0000 -38.6834 -35.3971 -41.9268 25.3984 7.1250 -0.0000 -0.0000 3.3349 -77.7331 -2.5507
-34.5425 16.2083 5.3771 7.2483 -39.2517 -14.3935 0.0000 0.0000 0.0000 5.8419 19.6351 10.0736 18.8783 19.9698 86.7188 0.2928 0.6464 -10.4754 0.0036 0.3890 1.0689 0.0000 0.0000 0.0000 23.3055 5.2628 -3.8254 -3.5713 -11.5669 34.2165 -0.6804 9.9220 -15.2673 -2.5915 -10.0024 28.9844 -14.3582 -4.2186 13.9534 -1.2284 -7.9490 0.9768 8.0185 -3.6276 -5.0015 0.0682 -2.8812 -17.9980 7.3003 -5.7170 18.1249 1.7271 -1.9376 8.8863 -0.0000 0.0000 0.0000 -11.2319 -55.2947 2.1460 75.7376 -59.2173 -47.6809 -0.0000 0.0000 -7.7896 44.3046 -42.0855 -33.1913 -7.1250 0.0000 -0.0000 3.4184 -21.5506 -4.4410 -0.0000 0.0000 0.0000 -26.4017 10.0882 -60.8318 -79.8137 59.6043 -51.1902 0.0000 -0.0000 -38.8075 -35.1171 -41.3094 24.9025 7.1250 -0.0000 -0.0000 2.9321 -77.0184 -2.1989
-34.2349 16.2909 5.3882 6.8079 -41.1565 -13.7067 0.0000 0.0000 0.0000 5.6226 18.1448 10.3987 17.7962 19.8832 83.5445 0.3666 -0.8738 -11.1640 0.0209 0.9325 2.5632 0.0000 0.0000 0.0000 22.7584 5.9906 -5.0869 -3.5423 -11.5250 34.0718 -0.4719 10.6490 -13.3844 -2.5722 -9.9681 28.8734 -13.9923 -4.1206 13.9440 -0.5381 -7.7078 1.0486 8.5306 -3.5243 -4.9182 -0.2282 -3.1368 -17.5122 7.4807 -6.0117 17.9703 1.8023 -2.0964 8.7725 0.0000 -0.0000 0.0000 -16.2696 -54.4930 6.0632 80.0912 -59.6257 -51.4296 -0.0000 0.0000 -8.0980 51.1523 -43.5497 -40.5458 -7.1250 0.0000 -0.0000 5.9379 -26.3646 -7.9860 0.0000 -0.0000 0.0000 -24.1462 11.8684 -59.2985 -86.2538 59.9469 -56.7563 0.0000 -0.0000 -38.5206 -34.7804 -40.9673 24.4817 7.1250 -0.0000 -0.0000 3.0900 -76.5545 -2.2872
-33.9085 16.4007 5.4059 6.4260 -42.8337 -12.9841 0.0000 0.0000 0.0000 4.6070 16.4331 10.5229 16.6518 19.7291 80.1679 0.4319 -2.9553 -11.7514 0.0352 -1.2113 -3.3303 0.0000 0.0000 0.0000 21.9234 6.3188 -6.7084 -3.5302 -11.5075 34.0113 -0.2682 11.1755 -11.3471 -2.4502 -9.7468 28.1605 -13.4158 -4.1111 14.0252 0.0308 -7.5698 1.2026 8.8136 -3.4828 -4.8181 -0.5509 -3.4495 -17.4686 7.9424 -6.4488 17.7814 1.9541 -2.2845 8.7481 0.0000 0.0000 0.0000 -21.3298 -53.3189 10.1184 84.4661 -59.8840 -55.2094 -0.0000 0.0000 -7.6783 58.4854 -44.1341 -48.6349 -7.1250 0.0000 -0.0000 8.8856 -31.1656 -12.2881 0.0000 0.0000 0.0000 -21.6120 13.7680 -57.7092 -92.4589 59.9771 -62.1293 0.0000 -0.0000 -38.0015 -34.2148 -40.7754 23.9456 7.1250 -0.0000 -0.0000 3.8924 -76.1562 -2.8489
-33.5648 16.5248 5.4238 6.6709 -44.3609 -12.4528 0.0000 0.0000 0.0000 2.5571 14.4238 10.2669 15.6222 19.5342 77.1040 0.4020 -6.7542 -11.5339 0.0179 -0.8646 -2.3764 0.0000 0.0000 0.0000 20.1673 5.9168 -9.0190 -3.5079 -11.4750 33.8991 -0.0105 11.9808 -8.5504 -2.2492 -9.3669 26.9498 -13.2137 -4.1139 14.0369 0.4529 -7.5086 1.3357 9.1448 -3.4764 -4.6586 -0.7963 -3.6392 -17.2088 8.3123 -6.6898 17.3932 2.0893 -2.3970 8.6043 -0.0000 -0.0000 0.0000 -26.3270 -51.9143 14.1972 88.4283 -59.9907 -58.6389 -0.0000 0.0000 -6.2490 65.7171 -43.5608 -56.7879 -7.1250 0.0000 -0.0000 12.3673 -35.5886 -17.4597 -0.0000 -0.0000 0.0000 -18.8697 15.8839 -55.8636 -98.1049 59.7503 -67.0131 0.0000 -0.0000 -37.3544 -33.5144 -40.6986 23.3565 7.1250 -0.0000 -0.0000 5.0758 -75.8237 -3.6801
-33.2087 16.6576 5.4468 7.2329 -45.9975 -12.0440 0.0000 0.0000 0.0000 0.1510 12.7001 9.7225 14.6145 19.2899 74.0728 0.5794 -5.1677 -13.5527 0.1881 -2.7929 -7.7028 0.0000 0.0000 0.0000 18.0076 4.8434 -11.7341 -3.4585 -11.4027 33.6502 0.2905 12.8851 -4.5785 -2.2590 -9.3860 27.0104 -13.1123 -4.0464 14.0639 0.8067 -7.3816 1.4191 9.4568 -3.4269 -4.5763 -0.6713 -3.6990 -17.2761 8.2905 -6.7801 17.1764 2.0480 -2.4387 8.5429 0.0000 -0.0000 0.0000 -31.1610 -50.2563 18.2626 92.0959 -59.9834 -61.8150 -0.0000 0.0000 -4.3128 71.9137 -42.4407 -64.1751 -7.1250 0.0000 -0.0000 15.8749 -39.5707 -22.7252 0.0000 -0.0000 0.0000 -15.9187 18.2119 -53.3477 -103.1184 59.3396 -71.3357 0.0000 -0.0000 -35.5753 -32.4070 -40.6059 22.4482 7.1250 -0.0000 -0.0000 6.9068 -75.3286 -4.9375
-32.8444 16.7956 5.4749 7.0750 -47.9646 -11.2447 0.0000 0.0000 0.0000 -1.6958 11.1142 9.2943 13.5459 18.9705 70.8128 0.7037 -4.6118 -14.9599 0.7249 -5.4404 -15.1691 0.0000 0.0000 0.0000 16.9045 4.0645 -13.1913 -3.1055 -10.8639 31.8222 0.4234 12.1438 0.1215 -2.5365 -9.9040 28.6664 -12.3973 -3.9468 14.2339 1.2533 -7.1302 1.5322 9.5299 -3.3166 -4.6357 -0.7052 -3.7576 -17.4355 8.4160 -6.8770 17.1091 2.0808 -2.4719 8.5605 0.0000 0.0000 0.0000 -35.7885 -48.1495 22.1219 95.2627 -59.8951 -64.5560 -0.0000 0.0000 -2.5618 77.0721 -41.6593 -70.9485 -7.1250 0.0000 -0.0000 18.9610 -43.5576 -27.3404 0.0000 0.0000 0.0000 -12.6411 20.8490 -50.5045 -107.3065 58.8375 -74.9294 0.0000 -0.0000 -33.5776 -30.7114 -40.7486 21.1936 7.1250 -0.0000 -0.0000 9.9807 -74.8500 -7.0416
-32.4708 16.9347 5.5073 6.8990 -50.1555 -10.5105 0.0000 0.0000 0.0000 -3.6207 9.3970 9.0458 12.5525 18.6146 67.7298 0.8087 -5.4526 -16.0310 0.5872 -4.9063 -13.6415 0.0000 0.0000 0.0000 15.5905 1.8522 -15.8231 -2.9153 -10.5567 30.7990 0.4232 11.5159 5.6742 -3.3757 -11.2797 33.2291 -11.5109 -3.7286 14.5856 1.6483 -6.7195 1.6370 9.4486 -3.1167 -4.8683 -0.9790 -3.9623 -17.8393 8.6353 -7.1748 17.4047 2.1561 -2.5866 8.7680 0.0000 0.0000 0.0000 -40.3793 -45.7542 26.2390 97.8273 -59.7672 -66.7733 -0.0000 0.0000 -2.4281 80.7315 -41.6552 -76.2049 -7.1250 0.0000 -0.0000 20.9751 -46.9973 -30.2432 0.0000 0.0000 0.0000 -8.8609 23.5519 -47.1373 -110.6401 58.3275 -77.7745 0.0000 -0.0000 -31.7627 -28.9127 -40.3915 19.6926 7.1250 -0.0000 -0.0000 12.2613 -73.8618 -8.4019
-32.0946 17.0685 5.5440 7.5430 -52.3835 -10.4202 0.0000 0.0000 0.0000 -6.1132 8.1309 8.5740 11.5691 18.2025 64.6164 0.9174 -4.2258 -17.1748 0.9896 -6.3314 -17.7490 0.0000 0.0000 0.0000 13.9779 -0.0525 -18.2620 -2.7429 -10.2668 29.8452 0.1922 10.2290 10.8638 -4.1420 -12.3470 36.9709 -11.0046 -3.2855 15.0962 1.9279 -6.0912 1.7759 9.4316 -2.8001 -5.1693 -0.4397 -4.1220 -18.3189 7.7026 -7.3270 17.3844 1.7255 -2.7022 8.7925 0.0000 -0.0000 0.0000 -45.0284 -43.3321 30.3160 99.8569 -59.6297 -68.5257 -0.0000 0.0000 -2.8481 81.6526 -41.4239 -77.4958 -7.1250 0.0000 -0.0000 21.6835 -47.7575 -31.2603 0.0000 -0.0000 0.0000 -4.9589 25.9740 -43.4455 -112.6798 57.9643 -79.5070 0.0000 -0.0000 -29.5930 -27.4356 -39.4698 18.2630 7.1250 -0.0000 -0.0000 13.0825 -72.4687 -8.5755
-31.7117 17.1879 5.5762 8.5020 -54.7445 -10.6558 0.0000 0.0000 0.0000 -8.7368 6.7328 8.1065 10.6361 17.7524 61.5941 1.0408 -3.5101 -18.4281 1.0181 -6.4193 -18.0060 0.0000 0.0000 0.0000 12.5659 -1.1480 -20.3749 -2.5753 -9.9735 28.8911 0.0222 8.8476 12.1887 -3.5951 -11.6011 34.3351 -10.7643 -2.7901 15.9310 2.1827 -5.4707 1.9731 9.5562 -2.4805 -5.5556 -0.1893 -4.2827 -19.3971 7.3678 -7.5748 17.5801 1.5205 -2.7981 9.0389 -0.0000 0.0000 0.0000 -49.1675 -40.3662 33.6854 101.4773 -59.4964 -69.9228 -0.0000 0.0000 -3.7373 81.0723 -40.8846 -76.5041 -7.1250 0.0000 -0.0000 21.7387 -46.8873 -31.3969 -0.0000 0.0000 0.0000 12.4280 19.7481 -30.9999 -117.6218 56.9111 -83.6731 0.0000 -0.0000 -29.0981 -25.5243 -26.4340 12.0005 7.1250 -0.0000 -0.0000 5.0974 -58.7583 -1.7173
-31.3159 17.2915 5.6121 9.4546 -57.4581 -10.8998 0.0000 0.0000 0.0000 -11.0837 5.5718 7.5054 9.7656 17.2759 58.7020 1.0784 -2.3840 -18.9771 0.7531 -5.5426 -15.4629 0.0000 0.0000 0.0000 11.6158 -1.6748 -22.6021 -2.4589 -9.7628 28.2121 -0.1510 6.9006 12.8439 -3.9761 -12.1285 36.1881 -10.5454 -2.4119 16.7971 2.2938 -5.0162 2.2876 9.5427 -2.2613 -5.8023 0.3621 -4.2197 -20.8161 7.3075 -7.6960 17.8482 1.3704 -2.7751 9.3695 0.0000 -0.0000 0.0000 -52.0258 -36.8970 35.8425 102.4715 -59.4041 -70.7790 -0.0000 0.0000 -4.6454 79.3215 -39.0949 -73.3524 -7.1250 0.0000 -0.0000 21.9196 -44.0463 -31.8024 0.0000 -0.0000 0.0000 16.0363 22.7072 -26.9921 -117.3782 56.9690 -83.4690 0.0000 -0.0000 -27.0214 -23.9637 -25.9865 11.0204 7.1250 -0.0000 -0.0000 6.6329 -57.9333 -2.1056
-30.9219 17.3823 5.6611 9.9629 -60.4524 -10.8136 0.0000 0.0000 0.0000 -12.8728 4.6796 6.8603 8.9198 16.7558 55.8123 1.1905 -1.5264 -20.1785 0.7740 -5.6175 -15.6785 0.0000 0.0000 0.0000 11.3285 -1.9349 -24.9175 -2.3969 -9.6479 27.8440 -0.2289 5.8046 13.0073 -4.5118 -12.8120 38.6687 -9.6032 -1.7972 17.8300 2.4165 -4.1297 2.3318 9.0590 -1.7953 -6.5853 1.1448 -4.2966 -21.9914 6.5093 -7.9408 18.4008 0.9126 -2.8710 9.7121 0.0000 0.0000 0.0000 -55.2529 -33.6882 38.5080 102.0481 -59.4443 -70.4145 -0.0000 0.0000 -6.2979 75.1670 -38.4379 -66.9262 -7.1250 0.0000 -0.0000 19.9175 -39.4603 -28.7882 0.0000 0.0000 0.0000 19.7279 24.1362 -22.4261 -116.7260 57.1211 -82.9217 0.0000 -0.0000 -26.1426 -22.3432 -25.8332 10.1540 7.1250 -0.0000 -0.0000 8.3254 -57.4147 -2.5431
-30.5405 17.4572 5.7124 10.6739 -63.5175 -10.9436 0.0000 0.0000 0.0000 -14.5202 3.8134 6.1596 8.1298 16.2139 53.0287 1.2650 0.1728 -21.3357 0.7395 -5.4937 -15.3223 0.0000 0.0000 0.0000 11.2046 -1.8379 -27.3015 -2.4706 -9.7842 28.2808 0.2057 10.1266 10.3109 -2.8646 -10.4726 30.5212 -8.7981 -1.1343 18.7450 2.4850 -3.1807 2.4307 8.5323 -1.3181 -7.2258 1.4940 -4.4543 -22.1872 6.2292 -8.1720 18.0517 0.7244 -2.9935 9.6013 -0.0000 0.0000 0.0000 -58.1242 -30.5664 40.5476 100.9378 -59.5431 -69.4579 -0.0000 0.0000 -8.2500 69.8651 -37.7423 -59.0794 -7.1250 0.0000 -0.0000 17.4602 -33.9429 -24.8534 -0.0000 0.0000 0.0000 23.5786 24.8467 -17.5182 -116.0103 57.2826 -82.3201 0.0000 -0.0000 -26.1366 -21.4757 -26.3733 9.9131 7.1250 -0.0000 -0.0000 9.5173 -57.7755 -2.9943
